<?xml version="1.0" encoding="utf-8"?><svg xmlns="http://www.w3.org/2000/svg" xmlns:xlink="http://www.w3.org/1999/xlink"><symbol viewBox="0 0 87.5 62.38" id="logo" xmlns="http://www.w3.org/2000/svg"><title>logo</title><g id="alogo"><style>.acls-1{fill:#20aa97}.acls-2,.acls-3{fill:none;stroke:#333436;stroke-width:5px}.acls-2{stroke-linejoin:round}.acls-3{stroke-miterlimit:10}</style><path class="acls-1" d="M77.09 20.72l10.41 10.4L77 41.67l-1.81-1.81s6.36-8.79.14-17.34zM10.41 41.67L0 31.26l10.54-10.54 1.81 1.81S6 31.31 12.21 39.86z"/><path class="acls-2" d="M23.46 10.9a28.69 28.69 0 0 1 40.54 0"/><path class="acls-3" d="M64 51.48a28.69 28.69 0 0 1-40.58 0"/><circle id="acircle-logo" class="acls-1" cx="43.75" cy="31.19" r="16.17" transform="rotate(-45 43.749 31.189)"/></g></symbol><symbol viewBox="0 0 71.02 69" id="serv1" xmlns="http://www.w3.org/2000/svg"><defs><style>.bcls-1{fill:#20aa97;fill-rule:evenodd}</style></defs><title>Ресурс 2</title><g id="bСлой_2" data-name="Слой 2"><g id="bheading"><g id="bGroup_17_copy" data-name="Group 17 copy"><path class="bcls-1" d="M66.62 26.75l-.15-.08-.58-.27a1.23 1.23 0 0 0 .13-.54C66 11.6 52.42 0 35.71 0S5.4 11.6 5.4 25.86a1.17 1.17 0 0 0 .07.38l-.93.43-.15.08a9.57 9.57 0 0 0-4.39 8v7.35a9.61 9.61 0 0 0 9.61 9.59h4a4.11 4.11 0 0 0 4.11-4.1V29.3a4.11 4.11 0 0 0-4.11-4.1h-4a8.56 8.56 0 0 0-1.61.17C8.28 12.74 20.6 2.54 35.71 2.54s27.48 10.24 27.75 22.91a9.26 9.26 0 0 0-2.05-.25h-4a4.11 4.11 0 0 0-4.1 4.1v18.33a4.11 4.11 0 0 0 4.1 4.1h4L51 61.55a3.65 3.65 0 0 1-2.52 1.08h-3.65a5.12 5.12 0 0 0-4.93-3.83h-6.12a5.1 5.1 0 1 0 0 10.2h6.12a5.1 5.1 0 0 0 4.93-3.83h3.63a6.24 6.24 0 0 0 4.27-1.77l13.38-12.66a1.16 1.16 0 0 0 .3-.43A9.59 9.59 0 0 0 71 42.14v-7.35a9.58 9.58 0 0 0-4.38-8.04zm-53.47 1h.5a1.56 1.56 0 0 1 1.56 1.56v18.32a1.55 1.55 0 0 1-1.56 1.55h-.5zm-3.54 0h1v21.43h-1a7.06 7.06 0 0 1-7.06-7v-7.39a7 7 0 0 1 3.16-5.86l1.74-.81a7 7 0 0 1 2.16-.38zM39.9 66.46h-6.12a2.56 2.56 0 1 1 0-5.11h6.12a2.56 2.56 0 1 1 0 5.11zm18-17.28h-.51a1.55 1.55 0 0 1-1.55-1.55V29.3a1.56 1.56 0 0 1 1.55-1.56h.51zm10.6-7a7.06 7.06 0 0 1-7.06 7h-1V27.74h1a7.08 7.08 0 0 1 2.16.38l1.74.81a7 7 0 0 1 3.16 5.86zM38 51.35v-5.11a1.28 1.28 0 0 0-2.55 0v5.11a1.28 1.28 0 0 0 2.55 0zm8 4.18l3.62-3.62a1.27 1.27 0 0 0 0-1.8 1.29 1.29 0 0 0-1.8 0l-3.62 3.62a1.27 1.27 0 0 0 0 1.8 1.24 1.24 0 0 0 .9.37 1.27 1.27 0 0 0 .9-.37zm-16.57-1.8l-3.62-3.62a1.29 1.29 0 0 0-1.8 0 1.27 1.27 0 0 0 0 1.8l3.62 3.62a1.27 1.27 0 0 0 1.8-1.8z" id="bShape_46" data-name="Shape 46"/></g></g></g></symbol><symbol viewBox="0 0 94 68.99" id="serv10" xmlns="http://www.w3.org/2000/svg"><defs><style>.ccls-1{fill:#20aa97;fill-rule:evenodd}</style></defs><title>Ресурс 11</title><g id="cСлой_2" data-name="Слой 2"><g id="cheading"><g id="cGroup_17" data-name="Group 17"><path class="ccls-1" d="M76 21.36H21.45a1.26 1.26 0 0 0-1.27 1.25v28.72a1.26 1.26 0 0 0 1.27 1.25H76a1.26 1.26 0 0 0 1.28-1.25V22.61A1.26 1.26 0 0 0 76 21.36zm-53.27 2.51h4.44a5.46 5.46 0 0 1-4.44 4.21zm0 26.2V46a5.44 5.44 0 0 1 4.4 4zm52 0H70A5.46 5.46 0 0 1 74.7 46zm0-6.61a8 8 0 0 0-7.34 6.61H29.73a8 8 0 0 0-7-6.58V30.61a8 8 0 0 0 7-6.74h37.6a8 8 0 0 0 7.37 6.77zm0-15.33a5.45 5.45 0 0 1-4.78-4.26h4.75zm-25.3-2.79A11.67 11.67 0 1 0 61.34 37a11.8 11.8 0 0 0-11.91-11.66zm0 20.83A9.16 9.16 0 1 1 58.78 37a9.26 9.26 0 0 1-9.35 9.17zm-1.16-10.81c0-.33.27-.57.88-.57a4 4 0 0 1 1.7.39 1 1 0 0 0 1.21-.24.91.91 0 0 0-.28-1.37 5.15 5.15 0 0 0-1.63-.49V32H48.8v1.12c-1.73.2-2.67 1.29-2.67 2.5 0 3.07 4.61 2.19 4.61 3.28 0 .38-.44.66-1.16.66a3.79 3.79 0 0 1-1.92-.56.93.93 0 0 0-1.24.27.93.93 0 0 0 .3 1.35 5.25 5.25 0 0 0 2.1.62v1.08h1.35v-1.09c1.76-.19 2.72-1.2 2.72-2.63-.02-2.96-4.62-2.22-4.62-3.24zM25.35 19.88H71.4a1.25 1.25 0 1 0 0-2.5H25.35a1.25 1.25 0 1 0 0 2.5zm5.92-3.65h34.42a1.26 1.26 0 1 0 0-2.51H31.27a1.26 1.26 0 1 0 0 2.51zM72.9 3.93l2.92-1.58a1.24 1.24 0 0 0 .5-1.7 1.29 1.29 0 0 0-1.74-.49L68.8 3.28a1.24 1.24 0 0 0-.61.74 1.2 1.2 0 0 0 .11 1l3.18 5.67a1.29 1.29 0 0 0 1.12.65 1.27 1.27 0 0 0 .62-.16 1.24 1.24 0 0 0 .5-1.7l-1.78-3.21a26 26 0 0 1 19.51 23.3 1.27 1.27 0 0 0 1.27 1.17h.09A1.25 1.25 0 0 0 94 29.4 28.53 28.53 0 0 0 72.9 3.93zM22.53 58.34a1.29 1.29 0 0 0-1.74-.49 1.23 1.23 0 0 0-.5 1.7l1.78 3.17a26 26 0 0 1-19.51-23.3 1.27 1.27 0 0 0-1.37-1.17A1.28 1.28 0 0 0 0 39.59a28.52 28.52 0 0 0 21.11 25.47l-2.92 1.57a1.25 1.25 0 0 0-.5 1.71 1.29 1.29 0 0 0 1.12.65 1.21 1.21 0 0 0 .61-.16l5.79-3.12a1.3 1.3 0 0 0 .61-.75 1.26 1.26 0 0 0-.11-.95z" id="cShape_52" data-name="Shape 52"/></g></g></g></symbol><symbol viewBox="0 0 62.99 69.02" id="serv2" xmlns="http://www.w3.org/2000/svg"><defs><style>.dcls-1{fill:#20aa97;fill-rule:evenodd}</style></defs><title>Ресурс 3</title><g id="dСлой_2" data-name="Слой 2"><g id="dheading"><g id="dGroup_17_copy" data-name="Group 17 copy"><path class="dcls-1" d="M34.38 66.17H2.86a.32.32 0 0 1-.2-.21v-63a.45.45 0 0 1 .2-.24h30v14.34a1.34 1.34 0 0 0 1.33 1.34H49v24.18a1.33 1.33 0 1 0 2.66 0V16.73a2.91 2.91 0 0 0-.85-2.06L37 .81A3.14 3.14 0 0 0 35 0H2.86a2.82 2.82 0 0 0-2 .86 2.93 2.93 0 0 0-.88 2V66a2.94 2.94 0 0 0 2.86 2.88h31.54a1.34 1.34 0 0 0 0-2.67zm1.17-63l12.51 12.55H35.55zm-7.9 20.22a1.34 1.34 0 0 0 0-2.68h-8.56a1.34 1.34 0 0 0 0 2.68zm8.1 5.54a1.33 1.33 0 0 0-1.33-1.34H12.65a1.34 1.34 0 0 0 0 2.68h21.77a1.33 1.33 0 0 0 1.33-1.37zm-.21 7H16a1.34 1.34 0 0 0 0 2.68h19.54a1.34 1.34 0 0 0 0-2.68zM10.29 46.2a1.34 1.34 0 0 0 1.33 1.34h14.07a1.34 1.34 0 0 0 0-2.68H11.62a1.34 1.34 0 0 0-1.33 1.34zM62 47.87l-3.43-3.47A3.49 3.49 0 0 0 56 43.31a3.21 3.21 0 0 0-2.32 1l-2.55 2.59a1.34 1.34 0 0 0-.62.33 1.33 1.33 0 0 0-.33.63L39.9 58.17a2.94 2.94 0 0 0-.59 1l-1.84 6.56a2.88 2.88 0 0 0-.12.76A2.57 2.57 0 0 0 39.92 69a2.37 2.37 0 0 0 .72-.1L47.1 67a2.53 2.53 0 0 0 1.12-.6L62 52.62a3.62 3.62 0 0 0 1-2.13 1 1 0 0 0 0-.17 3.42 3.42 0 0 0-1-2.45zM46.42 64.45h-.05l-6.28 1.83L41.84 60v-.06l9.73-9.75 4.5 4.52zm13.67-13.73L58 52.85l-4.49-4.52 2.11-2.12A.6.6 0 0 1 56 46a.84.84 0 0 1 .65.3l3.44 3.46a.7.7 0 0 1 .2.49.85.85 0 0 1-.2.47z" id="dShape_56" data-name="Shape 56"/></g></g></g></symbol><symbol viewBox="0 0 104.01 65.99" id="serv3" xmlns="http://www.w3.org/2000/svg"><defs><style>.ecls-1{fill:#20aa97;fill-rule:evenodd}</style></defs><title>Ресурс 4</title><g id="eСлой_2" data-name="Слой 2"><g id="eheading"><g id="eGroup_17_copy" data-name="Group 17 copy"><path class="ecls-1" d="M76.09 23.48V2.21A2.22 2.22 0 0 0 74.2 0a2.28 2.28 0 0 0-2.5 1.43c0 .05-2.35 5.66-15.49 13.24a56.73 56.73 0 0 1-26.66 7.13 5 5 0 0 0-4.45-2.62H9.41a5 5 0 0 0-5 4.71H4.1A4.07 4.07 0 0 0 0 28v7.83a4.07 4.07 0 0 0 4.1 4h.28a5 5 0 0 0 5 4.72h2.32l2.43 18.56A3.52 3.52 0 0 0 17.62 66h5.24a3.55 3.55 0 0 0 2.7-1.23 3.38 3.38 0 0 0 .79-2.77L24.1 44.53h1a5 5 0 0 0 4.45-2.62A56.81 56.81 0 0 1 56.21 49c13.13 7.58 15.47 13.19 15.48 13.22a2.26 2.26 0 0 0 2.13 1.49 1.73 1.73 0 0 0 .36 0 2.21 2.21 0 0 0 1.9-2.18V40.71c0-.19.06-.44.08-.75A4.28 4.28 0 0 0 80 35.88v-8.31a4.29 4.29 0 0 0-3.91-4.09zM4.37 37.41H4.1a1.65 1.65 0 0 1-1.66-1.63V28a1.65 1.65 0 0 1 1.66-1.68h.27zm19.32 25.8a1.07 1.07 0 0 1-.83.38h-5.24a1.07 1.07 0 0 1-1.07-.85l-2.39-18.21h7.47l2.31 17.8a1.09 1.09 0 0 1-.25.88zm3.89-22.86a2.59 2.59 0 0 1-2.48 1.78H9.41a2.58 2.58 0 0 1-2.6-2.55v-1a1.13 1.13 0 0 0-.09-.45 1.18 1.18 0 0 0 .09-.46V24.16a2.58 2.58 0 0 1 2.6-2.55H25.1a2.58 2.58 0 0 1 2.48 1.78 1.2 1.2 0 0 0 .16.32V40a1.06 1.06 0 0 0-.16.35zm46.12 0a1.28 1.28 0 0 0-.07.39v20c-1-1.89-4.77-7.16-16.18-13.74a59.27 59.27 0 0 0-27.27-7.45V24.22a59.27 59.27 0 0 0 27.27-7.45C68.85 10.19 72.58 4.91 73.63 3v20c.16 7.6.23 16.11.07 17.32zm.29-.46zm3.56-4a1.78 1.78 0 0 1-1.32 1.61c0-2.24 0-5.82-.1-11.56a1.8 1.8 0 0 1 1.42 1.64zm25.23-4.13h-9.27a1.2 1.2 0 1 0 0 2.4h9.27a1.2 1.2 0 1 0 0-2.4zM88.42 47a1.23 1.23 0 0 0-1.72 0 1.18 1.18 0 0 0 0 1.7l6.56 6.44a1.19 1.19 0 0 0 .86.35 1.2 1.2 0 0 0 .86-.35 1.18 1.18 0 0 0 0-1.7zm-.86-27.42a1.23 1.23 0 0 0 .86-.35L95 12.75a1.17 1.17 0 0 0 0-1.69 1.23 1.23 0 0 0-1.72 0L86.7 17.5a1.18 1.18 0 0 0 0 1.7 1.24 1.24 0 0 0 .86.35z" id="eShape_55" data-name="Shape 55"/></g></g></g></symbol><symbol viewBox="0 0 69.01 68.98" id="serv4" xmlns="http://www.w3.org/2000/svg"><defs><style>.fcls-1{fill:#20aa97;fill-rule:evenodd}</style></defs><title>Ресурс 5</title><g id="fСлой_2" data-name="Слой 2"><g id="fheading"><g id="fGroup_17_copy" data-name="Group 17 copy"><path class="fcls-1" d="M23.5 22a3.7 3.7 0 0 0 .43 4.69l2.78 2.77a3.87 3.87 0 0 0 4.7.44 3.69 3.69 0 0 0 3.67 3H39a3.64 3.64 0 0 0 3.65-3 3.86 3.86 0 0 0 4.73-.43l2.78-2.77a3.58 3.58 0 0 0 .45-4.66 3.69 3.69 0 0 0 3-3.66v-3.86a3.63 3.63 0 0 0-3-3.62 3.62 3.62 0 0 0-.44-4.71l-2.81-2.75a3.63 3.63 0 0 0-4.7-.44A3.7 3.7 0 0 0 39 0h-3.9a3.64 3.64 0 0 0-3.64 3 3.79 3.79 0 0 0-4.73.43l-2.8 2.77a3.6 3.6 0 0 0-.45 4.67 3.68 3.68 0 0 0-3 3.65v3.87A3.63 3.63 0 0 0 23.5 22zm-.5-7.48a1.2 1.2 0 0 1 1.1-1.22l1.79-.3a1.25 1.25 0 0 0 .94-.75A1.23 1.23 0 0 0 26.7 11l-1.15-1.6a1.1 1.1 0 0 1 .16-1.4l2.76-2.74a1.28 1.28 0 0 1 1.68-.06l1.48 1a1.26 1.26 0 0 0 2-.81l.32-1.9a1.14 1.14 0 0 1 1.17-1H39a1.2 1.2 0 0 1 1.23 1.1l.31 1.78a1.26 1.26 0 0 0 .76.94 1.25 1.25 0 0 0 1.21-.13l1.59-1.13a1.11 1.11 0 0 1 1.48.16L48.36 8a1.18 1.18 0 0 1 0 1.63l-1 1.47a1.23 1.23 0 0 0-.13 1.2 1.27 1.27 0 0 0 .95.75l1.91.32a1.12 1.12 0 0 1 1 1.16v3.87A1.19 1.19 0 0 1 50 19.61l-1.79.31a1.29 1.29 0 0 0-1 .76 1.26 1.26 0 0 0 .14 1.2l1.15 1.6a1.1 1.1 0 0 1-.14 1.52l-2.78 2.76a1.19 1.19 0 0 1-1.66 0l-1.48-1a1.3 1.3 0 0 0-1.21-.13 1.26 1.26 0 0 0-.75.94l-.33 1.9a1.12 1.12 0 0 1-1.17 1h-3.9a1.18 1.18 0 0 1-1.22-1.1l-.31-1.78a1.28 1.28 0 0 0-.76-.94 1.36 1.36 0 0 0-.48-.09 1.28 1.28 0 0 0-.73.22l-1.52 1.07-.11.08a1.36 1.36 0 0 1-1.46-.16L25.73 25a1.28 1.28 0 0 1-.06-1.68l1-1.46a1.25 1.25 0 0 0-.82-1.95L24 19.56a1.15 1.15 0 0 1-1-1.17zm14.6 9.41a7.47 7.47 0 1 0-7.52-7.47 7.5 7.5 0 0 0 7.52 7.47zm0-12.44a5 5 0 1 1-5 5 5 5 0 0 1 5-5zM66.87 35a6 6 0 0 0-8.16.77L51 44.4a1.62 1.62 0 0 0-.32.87 6.72 6.72 0 0 1-6.73 6.32h-8.41a.45.45 0 0 1-.45-.45.45.45 0 0 1 .44-.45H44a5.77 5.77 0 0 0 5.76-5.43V45a5.47 5.47 0 0 0-1.65-3.94 5.57 5.57 0 0 0-4-1.64H30.35l-2.05-.71a17.17 17.17 0 0 0-17.61 4L.37 52.89a1.26 1.26 0 0 0-.37.89 1.23 1.23 0 0 0 .38.89l14.41 14a1.28 1.28 0 0 0 .88.36 1.22 1.22 0 0 0 .89-.37L20.23 65H43a12.15 12.15 0 0 0 9.13-4.12l15.42-17.59a1 1 0 0 0 .14-.16 5.77 5.77 0 0 0-.82-8.13zm-1.2 6.66L50.2 59.2a9.61 9.61 0 0 1-7.2 3.27H19.71a1.22 1.22 0 0 0-.89.37L15.66 66 3.05 53.77l9.42-9.29a14.63 14.63 0 0 1 15-3.37l2.26.78a1.23 1.23 0 0 0 .42.07h14a3.11 3.11 0 0 1 3.1 3.18 3.23 3.23 0 0 1-3.26 3h-8.46a3 3 0 1 0 0 5.9h8.38a9.23 9.23 0 0 0 9.22-8.35l7.47-8.35a3.43 3.43 0 0 1 4.69-.47 3.3 3.3 0 0 1 .38 4.76z" id="fShape_58_copy" data-name="Shape 58 copy"/></g></g></g></symbol><symbol viewBox="0 0 68.99 68.99" id="serv5" xmlns="http://www.w3.org/2000/svg"><defs><style>.gcls-1{fill:#20aa97;fill-rule:evenodd}</style></defs><title>Ресурс 6</title><g id="gСлой_2" data-name="Слой 2"><g id="gheading"><g id="gGroup_17_copy" data-name="Group 17 copy"><path class="gcls-1" d="M49.75 36.93a7.22 7.22 0 0 0-5-2.07 6.82 6.82 0 0 0-5.39 2.46A1.93 1.93 0 0 1 38 38a1.87 1.87 0 0 1-1.38-.51l-7-6.82a1.6 1.6 0 0 1-.51-1.36 1.09 1.09 0 0 0 0-.18 1.75 1.75 0 0 1 .73-1.33 6.63 6.63 0 0 0 .49-9.94l-6.57-6.24a7 7 0 0 0-4.89-1.92 6.91 6.91 0 0 0-6.16 3.63 1.55 1.55 0 0 0-.24.33 18.57 18.57 0 0 0 3.75 21.91l15.5 15.07a19.84 19.84 0 0 0 13.92 5.63 18.86 18.86 0 0 0 8.64-2 1.25 1.25 0 0 0 .3-.21 6.53 6.53 0 0 0 3.57-4.94 6.32 6.32 0 0 0-1.82-5.78zm5.86 11.78a4 4 0 0 1-2.37 3.2 1.09 1.09 0 0 0-.33.23 16.51 16.51 0 0 1-7.27 1.61 17.22 17.22 0 0 1-12.1-4.89L18 33.8A16.15 16.15 0 0 1 14.67 15a1.22 1.22 0 0 0 .24-.32 4.33 4.33 0 0 1 4-2.44 4.43 4.43 0 0 1 3.05 1.21l6.57 6.24a4.16 4.16 0 0 1-.33 6.24 4.17 4.17 0 0 0-1.65 3.16 4 4 0 0 0 1.25 3.4l7 6.82a4.39 4.39 0 0 0 3.34 1.24 4.53 4.53 0 0 0 3.26-1.64 4.25 4.25 0 0 1 3.37-1.51 4.62 4.62 0 0 1 3.18 1.34l6.58 6.4a3.94 3.94 0 0 1 1.08 3.57zm-11-44.38l3.71-2a1.23 1.23 0 0 0 .51-1.7A1.29 1.29 0 0 0 47 .16l-6.57 3.53a1.23 1.23 0 0 0-.5 1.7l3.64 6.43a1.29 1.29 0 0 0 1.12.65 1.25 1.25 0 0 0 .62-.16 1.23 1.23 0 0 0 .51-1.7l-2.24-3.95a29.75 29.75 0 0 1 22.83 26.69 1.28 1.28 0 0 0 1.29 1.16h.09A1.26 1.26 0 0 0 69 33.17 32.25 32.25 0 0 0 44.57 4.33zM25.42 57.17a1.31 1.31 0 0 0-1.75-.49 1.23 1.23 0 0 0-.5 1.7l2.23 3.95A29.76 29.76 0 0 1 2.57 35.65a1.28 1.28 0 0 0-1.37-1.17A1.28 1.28 0 0 0 0 35.82a32.26 32.26 0 0 0 24.41 28.84l-3.71 2a1.23 1.23 0 0 0-.5 1.7 1.27 1.27 0 0 0 1.12.65 1.35 1.35 0 0 0 .62-.15l6.61-3.54a1.24 1.24 0 0 0 .51-1.7zm16.42-37.65v1.12c-1.74.21-2.69 1.29-2.69 2.49 0 3.07 4.64 2.2 4.64 3.28 0 .39-.45.66-1.17.66a3.66 3.66 0 0 1-1.92-.53 1 1 0 0 0-1.26.27.91.91 0 0 0 .3 1.34 5.25 5.25 0 0 0 2.11.62v1.08h1.35v-1.06c1.76-.19 2.73-1.2 2.73-2.63 0-2.95-4.62-2.21-4.62-3.23 0-.33.27-.57.88-.57a4.06 4.06 0 0 1 1.71.39 1 1 0 0 0 1.21-.24.9.9 0 0 0-.28-1.37 5.06 5.06 0 0 0-1.63-.48v-1.14z" id="gShape_53" data-name="Shape 53"/></g></g></g></symbol><symbol viewBox="0 0 59.99 69.01" id="serv6" xmlns="http://www.w3.org/2000/svg"><defs><style>.hcls-1{fill:#20aa97;fill-rule:evenodd}</style></defs><title>Ресурс 7</title><g id="hСлой_2" data-name="Слой 2"><g id="hheading"><g id="hGroup_17" data-name="Group 17"><path class="hcls-1" d="M16.72 19.76H25a1.28 1.28 0 1 0 0-2.55h-8.28a1.28 1.28 0 1 0 0 2.55zm-6.25 6.55h21.1a1.28 1.28 0 1 0 0-2.55h-21.1a1.28 1.28 0 1 0 0 2.55zm3.25 5.37a1.28 1.28 0 1 0 0 2.55h18.94a1.28 1.28 0 1 0 0-2.55zm9.39 8.57H9.48a1.28 1.28 0 1 0 0 2.55h13.63a1.28 1.28 0 1 0 0-2.55zm34 7.2a3.57 3.57 0 0 0-.49-4.59l-2.71-2.68a3.73 3.73 0 0 0-3.91-.87V15.94a2.76 2.76 0 0 0-.81-2L35.84.77A3.13 3.13 0 0 0 33.9 0H2.77A2.74 2.74 0 0 0 .85.82 2.77 2.77 0 0 0 0 2.74v60.13a2.82 2.82 0 0 0 2.77 2.74h30.54a1.42 1.42 0 0 0 .2 0l.06.07a3.85 3.85 0 0 0 4.6.48A3.68 3.68 0 0 0 41.81 69h3.82a3.62 3.62 0 0 0 3.6-2.9 3.83 3.83 0 0 0 4.63-.47L56.58 63a3.55 3.55 0 0 0 .5-4.55A3.65 3.65 0 0 0 60 54.8V51a3.62 3.62 0 0 0-2.94-3.55zM34.49 3.05l11.8 11.66h-11.8zm-31.72 60a.3.3 0 0 1-.19-.19V2.78a.51.51 0 0 1 .2-.23h29.14V16a1.27 1.27 0 0 0 1.28 1.27h14.24v20a3.82 3.82 0 0 0-1.81-.45h-3.82a3.61 3.61 0 0 0-3.61 2.89 3.8 3.8 0 0 0-4.63.47l-2.72 2.69a3.55 3.55 0 0 0-.49 4.55A3.67 3.67 0 0 0 27.45 51v3.8a3.61 3.61 0 0 0 2.92 3.57 3.69 3.69 0 0 0 .48 4.63l.12.11zm54.64-8.25a1.11 1.11 0 0 1-1 1.13l-1.76.3a1.28 1.28 0 0 0-1 .77 1.27 1.27 0 0 0 .13 1.22l1.13 1.57a1 1 0 0 1-.15 1.35L52 63.83a1.1 1.1 0 0 1-1.55 0l-1.45-1a1.33 1.33 0 0 0-1.24-.14 1.32 1.32 0 0 0-.77 1l-.32 1.85a1.05 1.05 0 0 1-1.08.91h-3.78a1.11 1.11 0 0 1-1.14-1l-.31-1.74a1.29 1.29 0 0 0-.78-1 1.37 1.37 0 0 0-.49-.09 1.32 1.32 0 0 0-.74.23l-1.49 1-.11.08a1.25 1.25 0 0 1-1.36-.16l-2.69-2.6a1.16 1.16 0 0 1-.05-1.56l1-1.44a1.26 1.26 0 0 0 .14-1.17 1.28 1.28 0 0 0-1-.76l-1.87-.32A1 1 0 0 1 30 54.8V51a1.11 1.11 0 0 1 1-1.13l1.75-.3a1.32 1.32 0 0 0 1-.77 1.24 1.24 0 0 0-.14-1.22L32.53 46a1 1 0 0 1 .15-1.35L35.37 42A1.2 1.2 0 0 1 37 42l1.45 1a1.29 1.29 0 0 0 1.23.13 1.26 1.26 0 0 0 .77-1l.32-1.86a1.05 1.05 0 0 1 1.09-.9h3.82a1.11 1.11 0 0 1 1.14 1l.3 1.74a1.29 1.29 0 0 0 2 .82l1.58-1.11A1 1 0 0 1 52 42l2.72 2.69a1.1 1.1 0 0 1 0 1.52l-1 1.43a1.27 1.27 0 0 0-.13 1.22 1.28 1.28 0 0 0 1 .76l1.87.32a1 1 0 0 1 .95 1.06zm-13.14-9.23a7.34 7.34 0 1 0 7.42 7.34 7.39 7.39 0 0 0-7.42-7.34zm0 12.13a4.79 4.79 0 1 1 4.84-4.79 4.82 4.82 0 0 1-4.84 4.79z" id="hShape_48" data-name="Shape 48"/></g></g></g></symbol><symbol viewBox="0 0 70 69" id="serv7" xmlns="http://www.w3.org/2000/svg"><defs><style>.icls-1{fill:#20aa97;fill-rule:evenodd}</style></defs><title>Ресурс 8</title><g id="iСлой_2" data-name="Слой 2"><g id="iheading"><g id="iGroup_17" data-name="Group 17"><path class="icls-1" d="M68.73 66.48H56.51v-4a1.28 1.28 0 0 0-2.55 0v4H38.52v-4a1.28 1.28 0 0 0-2.55 0v4H20.53v-4a1.27 1.27 0 0 0-2.54 0v4H3.46L9 52.56l4.13 4.2a1.25 1.25 0 0 0 1.09.37 1.27 1.27 0 0 0 .94-.66l5.94-11.15 5.45 4.45a1.22 1.22 0 0 0 .93.28 1.24 1.24 0 0 0 .86-.45l4.47-5.39a23.83 23.83 0 0 0 36.72-19.74 23.79 23.79 0 0 0-47.58 0 23.4 23.4 0 0 0 8.81 18.26L27.2 47l-5.68-4.6a1.3 1.3 0 0 0-1.06-.26 1.21 1.21 0 0 0-.87.65l-5.85 11-4.28-4.38a1.27 1.27 0 0 0-2.09.42L2.54 61.92V1.26A1.26 1.26 0 0 0 1.27 0 1.26 1.26 0 0 0 0 1.26v66.48A1.27 1.27 0 0 0 1.27 69h67.46a1.26 1.26 0 1 0 0-2.52zm-44.24-42a21.25 21.25 0 0 1 42.5 0 21.25 21.25 0 0 1-42.5 0zm31-12a1.29 1.29 0 0 0-1.79.2L36.25 34.31a1.24 1.24 0 0 0 .2 1.76 1.28 1.28 0 0 0 1.79-.19l17.48-21.6a1.26 1.26 0 0 0-.19-1.77zM45 18.05a5.77 5.77 0 1 0-5.77 5.7 5.74 5.74 0 0 0 5.77-5.7zm-9 0a3.23 3.23 0 1 1 3.22 3.19A3.21 3.21 0 0 1 36 18.05zm10.47 12.84a5.77 5.77 0 1 0 5.77-5.7 5.75 5.75 0 0 0-5.77 5.7zm9 0a3.23 3.23 0 1 1-3.22-3.19 3.21 3.21 0 0 1 3.21 3.19z" id="iShape_50" data-name="Shape 50"/></g></g></g></symbol><symbol viewBox="0 0 75.01 69.01" id="serv8" xmlns="http://www.w3.org/2000/svg"><defs><style>.jcls-1{fill:#20aa97;fill-rule:evenodd}</style></defs><title>Ресурс 9</title><g id="jСлой_2" data-name="Слой 2"><g id="jheading"><g id="jGroup_17" data-name="Group 17"><path class="jcls-1" d="M73.28 55.94L62.87 45.67a3.63 3.63 0 0 0-5.06 0l-2.21 2.18-4.53-4.47a25.7 25.7 0 0 0 3.87-29.15 1.26 1.26 0 0 0 .69-.32L63.82 6v4.71a1.28 1.28 0 0 0 2.56 0V2.74a1.27 1.27 0 0 0-1.28-1.26h-8a1.27 1.27 0 1 0 0 2.53h5.11l-8.38 8.09s0 .07-.07.1A26.43 26.43 0 0 0 5.06 26a25.59 25.59 0 0 0 3 12L.38 45.51a1.27 1.27 0 0 0 .9 2.17 1.29 1.29 0 0 0 .9-.36l7.22-7a26.56 26.56 0 0 0 39.87 4.87l4.52 4.46L51.36 52a3.52 3.52 0 0 0 0 5l10.41 10.3a6 6 0 0 0 8.4 0l3.11-3.07a5.82 5.82 0 0 0 0-8.29zm-41.84-6.42A23.68 23.68 0 0 1 7.63 26a23.81 23.81 0 0 1 47.61 0 23.68 23.68 0 0 1-23.8 23.52zm40 12.92l-3.11 3.07a3.41 3.41 0 0 1-4.76 0L53.18 55.23a1 1 0 0 1 0-1.4l6.45-6.37a1 1 0 0 1 1.42 0l10.41 10.28a3.28 3.28 0 0 1 0 4.7zM46 20.1l-8.93 9.18-9.7-9.21a1.3 1.3 0 0 0-1.79 0l-10.51 10.1A1.26 1.26 0 0 0 15 32a1.31 1.31 0 0 0 .92.38 1.29 1.29 0 0 0 .9-.36l9.61-9.24L36.19 32a1.36 1.36 0 0 0 .92.35A1.33 1.33 0 0 0 38 32l9.82-10.09a1.26 1.26 0 0 0 0-1.79A1.3 1.3 0 0 0 46 20.1z" id="jShape_49" data-name="Shape 49"/></g></g></g></symbol><symbol viewBox="0 0 66.03 69.02" id="serv9" xmlns="http://www.w3.org/2000/svg"><defs><style>.kcls-1{fill:#20aa97;fill-rule:evenodd}</style></defs><title>Ресурс 10</title><g id="kСлой_2" data-name="Слой 2"><g id="kheading"><g id="kGroup_17" data-name="Group 17"><path class="kcls-1" d="M42.5 49.33a12.08 12.08 0 0 0 2.32 3.1A6.12 6.12 0 0 0 49 54h.2a6.15 6.15 0 0 0 4.12-1.59 8.49 8.49 0 0 0 2.33-3.12 15.26 15.26 0 0 0 1.58-6.58v-1a6.8 6.8 0 0 0-4.65-6 9.68 9.68 0 0 0-3.58-.65 9.29 9.29 0 0 0-3.54.66 6.78 6.78 0 0 0-4.68 6.14v.94a17.32 17.32 0 0 0 1.67 6.51zm3.9-11.28a6.67 6.67 0 0 1 2.64-.5 7 7 0 0 1 2.67.51 4.37 4.37 0 0 1 3.07 3.8v.87a13.09 13.09 0 0 1-1.36 5.58 6.3 6.3 0 0 1-1.71 2.26 3.81 3.81 0 0 1-1.15.71 1.24 1.24 0 0 0-1.2-.93 1.25 1.25 0 0 0-1.23 1.08 3.54 3.54 0 0 1-1.59-.81 9.19 9.19 0 0 1-1.8-2.39 14.91 14.91 0 0 1-1.43-5.5V42a4.29 4.29 0 0 1 3.09-3.95zM63 56.84a6 6 0 0 0-2.07-1.05L56.19 54a4.06 4.06 0 0 0-4.13.37 1.14 1.14 0 0 0-.11.11l-.2.19a4.48 4.48 0 0 0-.71.92 1 1 0 0 0-.19.21l-1.74 2.43-.75-1.06c-.47-.67-.94-1.34-1.43-2a1.87 1.87 0 0 0-.3-.42 3.38 3.38 0 0 0-1.75-1.11l-.38-.1a1.47 1.47 0 0 0-.47 0l-1.45.19-.28.07-4.75 1.82a6.57 6.57 0 0 0-2.25 1.18 4.9 4.9 0 0 0-2 3.92v3.8a1.94 1.94 0 0 0 0 .24c.1.51.21.92.31 1.33a1 1 0 0 0 0 .16 4.22 4.22 0 0 0 4 2.73h23.07a4.27 4.27 0 0 0 3.92-2.64 4.14 4.14 0 0 0 .4-1.88V61a4.41 4.41 0 0 0-2-4.16zm-.44 4v3.61a1.81 1.81 0 0 1-.2.9 1.84 1.84 0 0 1-1.66 1.16H37.6a1.72 1.72 0 0 1-1.6-1.08c-.07-.31-.15-.63-.23-1v-3.72a2.43 2.43 0 0 1 1.09-1.9 4.42 4.42 0 0 1 1.48-.81l4.71-1.8 1.08-.15.21.06c.09 0 .19.09.44.34a1.69 1.69 0 0 0 .21.31c.46.6.9 1.23 1.34 1.86s.94 1.34 1.45 2l.39.49a1.31 1.31 0 0 0 1 .47 1.28 1.28 0 0 0 1-.53l2.57-3.59a1.56 1.56 0 0 0 .28-.33 1 1 0 0 0 .16-.24 2 2 0 0 1 .35-.45l.13-.14c.19-.13.65-.37 1.67 0l4.83 1.79a3.58 3.58 0 0 1 1.31.65 2.18 2.18 0 0 1 1.08 1.67 1.24 1.24 0 0 0-.01.44zM45 7.77l3-1.64a1.25 1.25 0 0 0-1.2-2.19L41 7.12a1.28 1.28 0 0 0-.6.75 1.26 1.26 0 0 0 .11 1l3.17 5.77a1.22 1.22 0 0 0 1.08.65 1.17 1.17 0 0 0 .6-.16 1.25 1.25 0 0 0 .49-1.69l-1.8-3.3a26.4 26.4 0 0 1 19.5 23.76 1.25 1.25 0 0 0 1.24 1.16h.08A1.26 1.26 0 0 0 66 33.73 28.9 28.9 0 0 0 45 7.77zM22.79 58.52a1.23 1.23 0 0 0-1.68-.52 1.25 1.25 0 0 0-.49 1.69L22 62.2A26.38 26.38 0 0 1 2.48 38.4a1.25 1.25 0 0 0-1.32-1.16A1.25 1.25 0 0 0 0 38.57a28.87 28.87 0 0 0 21 25.95l-2.15 1.2a1.25 1.25 0 0 0 .6 2.34 1.2 1.2 0 0 0 .6-.16L25 65.17a1.25 1.25 0 0 0 .49-1.69zM1.68 14.68h3V27.1H4a1.25 1.25 0 0 0 0 2.5h29.74a1.25 1.25 0 0 0 0-2.5H33V14.68h3.4a1.25 1.25 0 0 0 .71-2.27L19.74.23a1.2 1.2 0 0 0-1.42 0L1 12.41a1.26 1.26 0 0 0-.47 1.4 1.23 1.23 0 0 0 1.15.87zm9.6 12.42H7.16V14.68h4.12zm6.61 0h-4.12V14.68h4.12zm6.3 0h-3.82V14.68h3.82zm6.3 0h-3.82V14.68h3.82zM19 2.77l13.4 9.42H5.63zm17.35 28H1.89a1.25 1.25 0 0 0 0 2.5h34.49a1.25 1.25 0 0 0 0-2.5z" id="kShape_51" data-name="Shape 51"/></g></g></g></symbol></svg>