<svg xmlns="http://www.w3.org/2000/svg" viewBox="0 0 68.99 68.99"><defs><style>.cls-1{fill:#20aa97;fill-rule:evenodd}</style></defs><title>Ресурс 6</title><g id="Слой_2" data-name="Слой 2"><g id="heading"><g id="Group_17_copy" data-name="Group 17 copy"><path class="cls-1" d="M49.75 36.93a7.22 7.22 0 0 0-5-2.07 6.82 6.82 0 0 0-5.39 2.46A1.93 1.93 0 0 1 38 38a1.87 1.87 0 0 1-1.38-.51l-7-6.82a1.6 1.6 0 0 1-.51-1.36 1.09 1.09 0 0 0 0-.18 1.75 1.75 0 0 1 .73-1.33 6.63 6.63 0 0 0 .49-9.94l-6.57-6.24a7 7 0 0 0-4.89-1.92 6.91 6.91 0 0 0-6.16 3.63 1.55 1.55 0 0 0-.24.33 18.57 18.57 0 0 0 3.75 21.91l15.5 15.07a19.84 19.84 0 0 0 13.92 5.63 18.86 18.86 0 0 0 8.64-2 1.25 1.25 0 0 0 .3-.21 6.53 6.53 0 0 0 3.57-4.94 6.32 6.32 0 0 0-1.82-5.78zm5.86 11.78a4 4 0 0 1-2.37 3.2 1.09 1.09 0 0 0-.33.23 16.51 16.51 0 0 1-7.27 1.61 17.22 17.22 0 0 1-12.1-4.89L18 33.8A16.15 16.15 0 0 1 14.67 15a1.22 1.22 0 0 0 .24-.32 4.33 4.33 0 0 1 4-2.44 4.43 4.43 0 0 1 3.05 1.21l6.57 6.24a4.16 4.16 0 0 1-.33 6.24 4.17 4.17 0 0 0-1.65 3.16 4 4 0 0 0 1.25 3.4l7 6.82a4.39 4.39 0 0 0 3.34 1.24 4.53 4.53 0 0 0 3.26-1.64 4.25 4.25 0 0 1 3.37-1.51 4.62 4.62 0 0 1 3.18 1.34l6.58 6.4a3.94 3.94 0 0 1 1.08 3.57zm-11-44.38l3.71-2a1.23 1.23 0 0 0 .51-1.7A1.29 1.29 0 0 0 47 .16l-6.57 3.53a1.23 1.23 0 0 0-.5 1.7l3.64 6.43a1.29 1.29 0 0 0 1.12.65 1.25 1.25 0 0 0 .62-.16 1.23 1.23 0 0 0 .51-1.7l-2.24-3.95a29.75 29.75 0 0 1 22.83 26.69 1.28 1.28 0 0 0 1.29 1.16h.09A1.26 1.26 0 0 0 69 33.17 32.25 32.25 0 0 0 44.57 4.33zM25.42 57.17a1.31 1.31 0 0 0-1.75-.49 1.23 1.23 0 0 0-.5 1.7l2.23 3.95A29.76 29.76 0 0 1 2.57 35.65a1.28 1.28 0 0 0-1.37-1.17A1.28 1.28 0 0 0 0 35.82a32.26 32.26 0 0 0 24.41 28.84l-3.71 2a1.23 1.23 0 0 0-.5 1.7 1.27 1.27 0 0 0 1.12.65 1.35 1.35 0 0 0 .62-.15l6.61-3.54a1.24 1.24 0 0 0 .51-1.7zm16.42-37.65v1.12c-1.74.21-2.69 1.29-2.69 2.49 0 3.07 4.64 2.2 4.64 3.28 0 .39-.45.66-1.17.66a3.66 3.66 0 0 1-1.92-.53 1 1 0 0 0-1.26.27.91.91 0 0 0 .3 1.34 5.25 5.25 0 0 0 2.11.62v1.08h1.35v-1.06c1.76-.19 2.73-1.2 2.73-2.63 0-2.95-4.62-2.21-4.62-3.23 0-.33.27-.57.88-.57a4.06 4.06 0 0 1 1.71.39 1 1 0 0 0 1.21-.24.9.9 0 0 0-.28-1.37 5.06 5.06 0 0 0-1.63-.48v-1.14z" id="Shape_53" data-name="Shape 53"/></g></g></g></svg>