<svg xmlns="http://www.w3.org/2000/svg" viewBox="0 0 62.99 69.02"><defs><style>.cls-1{fill:#20aa97;fill-rule:evenodd}</style></defs><title>Ресурс 3</title><g id="Слой_2" data-name="Слой 2"><g id="heading"><g id="Group_17_copy" data-name="Group 17 copy"><path class="cls-1" d="M34.38 66.17H2.86a.32.32 0 0 1-.2-.21v-63a.45.45 0 0 1 .2-.24h30v14.34a1.34 1.34 0 0 0 1.33 1.34H49v24.18a1.33 1.33 0 1 0 2.66 0V16.73a2.91 2.91 0 0 0-.85-2.06L37 .81A3.14 3.14 0 0 0 35 0H2.86a2.82 2.82 0 0 0-2 .86 2.93 2.93 0 0 0-.88 2V66a2.94 2.94 0 0 0 2.86 2.88h31.54a1.34 1.34 0 0 0 0-2.67zm1.17-63l12.51 12.55H35.55zm-7.9 20.22a1.34 1.34 0 0 0 0-2.68h-8.56a1.34 1.34 0 0 0 0 2.68zm8.1 5.54a1.33 1.33 0 0 0-1.33-1.34H12.65a1.34 1.34 0 0 0 0 2.68h21.77a1.33 1.33 0 0 0 1.33-1.37zm-.21 7H16a1.34 1.34 0 0 0 0 2.68h19.54a1.34 1.34 0 0 0 0-2.68zM10.29 46.2a1.34 1.34 0 0 0 1.33 1.34h14.07a1.34 1.34 0 0 0 0-2.68H11.62a1.34 1.34 0 0 0-1.33 1.34zM62 47.87l-3.43-3.47A3.49 3.49 0 0 0 56 43.31a3.21 3.21 0 0 0-2.32 1l-2.55 2.59a1.34 1.34 0 0 0-.62.33 1.33 1.33 0 0 0-.33.63L39.9 58.17a2.94 2.94 0 0 0-.59 1l-1.84 6.56a2.88 2.88 0 0 0-.12.76A2.57 2.57 0 0 0 39.92 69a2.37 2.37 0 0 0 .72-.1L47.1 67a2.53 2.53 0 0 0 1.12-.6L62 52.62a3.62 3.62 0 0 0 1-2.13 1 1 0 0 0 0-.17 3.42 3.42 0 0 0-1-2.45zM46.42 64.45h-.05l-6.28 1.83L41.84 60v-.06l9.73-9.75 4.5 4.52zm13.67-13.73L58 52.85l-4.49-4.52 2.11-2.12A.6.6 0 0 1 56 46a.84.84 0 0 1 .65.3l3.44 3.46a.7.7 0 0 1 .2.49.85.85 0 0 1-.2.47z" id="Shape_56" data-name="Shape 56"/></g></g></g></svg>