<svg xmlns="http://www.w3.org/2000/svg" viewBox="0 0 69.01 68.98"><defs><style>.cls-1{fill:#20aa97;fill-rule:evenodd}</style></defs><title>Ресурс 5</title><g id="Слой_2" data-name="Слой 2"><g id="heading"><g id="Group_17_copy" data-name="Group 17 copy"><path class="cls-1" d="M23.5 22a3.7 3.7 0 0 0 .43 4.69l2.78 2.77a3.87 3.87 0 0 0 4.7.44 3.69 3.69 0 0 0 3.67 3H39a3.64 3.64 0 0 0 3.65-3 3.86 3.86 0 0 0 4.73-.43l2.78-2.77a3.58 3.58 0 0 0 .45-4.66 3.69 3.69 0 0 0 3-3.66v-3.86a3.63 3.63 0 0 0-3-3.62 3.62 3.62 0 0 0-.44-4.71l-2.81-2.75a3.63 3.63 0 0 0-4.7-.44A3.7 3.7 0 0 0 39 0h-3.9a3.64 3.64 0 0 0-3.64 3 3.79 3.79 0 0 0-4.73.43l-2.8 2.77a3.6 3.6 0 0 0-.45 4.67 3.68 3.68 0 0 0-3 3.65v3.87A3.63 3.63 0 0 0 23.5 22zm-.5-7.48a1.2 1.2 0 0 1 1.1-1.22l1.79-.3a1.25 1.25 0 0 0 .94-.75A1.23 1.23 0 0 0 26.7 11l-1.15-1.6a1.1 1.1 0 0 1 .16-1.4l2.76-2.74a1.28 1.28 0 0 1 1.68-.06l1.48 1a1.26 1.26 0 0 0 2-.81l.32-1.9a1.14 1.14 0 0 1 1.17-1H39a1.2 1.2 0 0 1 1.23 1.1l.31 1.78a1.26 1.26 0 0 0 .76.94 1.25 1.25 0 0 0 1.21-.13l1.59-1.13a1.11 1.11 0 0 1 1.48.16L48.36 8a1.18 1.18 0 0 1 0 1.63l-1 1.47a1.23 1.23 0 0 0-.13 1.2 1.27 1.27 0 0 0 .95.75l1.91.32a1.12 1.12 0 0 1 1 1.16v3.87A1.19 1.19 0 0 1 50 19.61l-1.79.31a1.29 1.29 0 0 0-1 .76 1.26 1.26 0 0 0 .14 1.2l1.15 1.6a1.1 1.1 0 0 1-.14 1.52l-2.78 2.76a1.19 1.19 0 0 1-1.66 0l-1.48-1a1.3 1.3 0 0 0-1.21-.13 1.26 1.26 0 0 0-.75.94l-.33 1.9a1.12 1.12 0 0 1-1.17 1h-3.9a1.18 1.18 0 0 1-1.22-1.1l-.31-1.78a1.28 1.28 0 0 0-.76-.94 1.36 1.36 0 0 0-.48-.09 1.28 1.28 0 0 0-.73.22l-1.52 1.07-.11.08a1.36 1.36 0 0 1-1.46-.16L25.73 25a1.28 1.28 0 0 1-.06-1.68l1-1.46a1.25 1.25 0 0 0-.82-1.95L24 19.56a1.15 1.15 0 0 1-1-1.17zm14.6 9.41a7.47 7.47 0 1 0-7.52-7.47 7.5 7.5 0 0 0 7.52 7.47zm0-12.44a5 5 0 1 1-5 5 5 5 0 0 1 5-5zM66.87 35a6 6 0 0 0-8.16.77L51 44.4a1.62 1.62 0 0 0-.32.87 6.72 6.72 0 0 1-6.73 6.32h-8.41a.45.45 0 0 1-.45-.45.45.45 0 0 1 .44-.45H44a5.77 5.77 0 0 0 5.76-5.43V45a5.47 5.47 0 0 0-1.65-3.94 5.57 5.57 0 0 0-4-1.64H30.35l-2.05-.71a17.17 17.17 0 0 0-17.61 4L.37 52.89a1.26 1.26 0 0 0-.37.89 1.23 1.23 0 0 0 .38.89l14.41 14a1.28 1.28 0 0 0 .88.36 1.22 1.22 0 0 0 .89-.37L20.23 65H43a12.15 12.15 0 0 0 9.13-4.12l15.42-17.59a1 1 0 0 0 .14-.16 5.77 5.77 0 0 0-.82-8.13zm-1.2 6.66L50.2 59.2a9.61 9.61 0 0 1-7.2 3.27H19.71a1.22 1.22 0 0 0-.89.37L15.66 66 3.05 53.77l9.42-9.29a14.63 14.63 0 0 1 15-3.37l2.26.78a1.23 1.23 0 0 0 .42.07h14a3.11 3.11 0 0 1 3.1 3.18 3.23 3.23 0 0 1-3.26 3h-8.46a3 3 0 1 0 0 5.9h8.38a9.23 9.23 0 0 0 9.22-8.35l7.47-8.35a3.43 3.43 0 0 1 4.69-.47 3.3 3.3 0 0 1 .38 4.76z" id="Shape_58_copy" data-name="Shape 58 copy"/></g></g></g></svg>