<svg xmlns="http://www.w3.org/2000/svg" viewBox="0 0 75.01 69.01"><defs><style>.cls-1{fill:#20aa97;fill-rule:evenodd}</style></defs><title>Ресурс 9</title><g id="Слой_2" data-name="Слой 2"><g id="heading"><g id="Group_17" data-name="Group 17"><path class="cls-1" d="M73.28 55.94L62.87 45.67a3.63 3.63 0 0 0-5.06 0l-2.21 2.18-4.53-4.47a25.7 25.7 0 0 0 3.87-29.15 1.26 1.26 0 0 0 .69-.32L63.82 6v4.71a1.28 1.28 0 0 0 2.56 0V2.74a1.27 1.27 0 0 0-1.28-1.26h-8a1.27 1.27 0 1 0 0 2.53h5.11l-8.38 8.09s0 .07-.07.1A26.43 26.43 0 0 0 5.06 26a25.59 25.59 0 0 0 3 12L.38 45.51a1.27 1.27 0 0 0 .9 2.17 1.29 1.29 0 0 0 .9-.36l7.22-7a26.56 26.56 0 0 0 39.87 4.87l4.52 4.46L51.36 52a3.52 3.52 0 0 0 0 5l10.41 10.3a6 6 0 0 0 8.4 0l3.11-3.07a5.82 5.82 0 0 0 0-8.29zm-41.84-6.42A23.68 23.68 0 0 1 7.63 26a23.81 23.81 0 0 1 47.61 0 23.68 23.68 0 0 1-23.8 23.52zm40 12.92l-3.11 3.07a3.41 3.41 0 0 1-4.76 0L53.18 55.23a1 1 0 0 1 0-1.4l6.45-6.37a1 1 0 0 1 1.42 0l10.41 10.28a3.28 3.28 0 0 1 0 4.7zM46 20.1l-8.93 9.18-9.7-9.21a1.3 1.3 0 0 0-1.79 0l-10.51 10.1A1.26 1.26 0 0 0 15 32a1.31 1.31 0 0 0 .92.38 1.29 1.29 0 0 0 .9-.36l9.61-9.24L36.19 32a1.36 1.36 0 0 0 .92.35A1.33 1.33 0 0 0 38 32l9.82-10.09a1.26 1.26 0 0 0 0-1.79A1.3 1.3 0 0 0 46 20.1z" id="Shape_49" data-name="Shape 49"/></g></g></g></svg>