<svg xmlns="http://www.w3.org/2000/svg" viewBox="0 0 104.01 65.99"><defs><style>.cls-1{fill:#20aa97;fill-rule:evenodd;}</style></defs><title>Ресурс 4</title><g id="Слой_2" data-name="Слой 2"><g id="heading"><g id="Group_17_copy" data-name="Group 17 copy"><g id="Shape_55" data-name="Shape 55"><path class="cls-1" d="M76.09,23.48c0-.15,0-.29,0-.45V2.21A2.22,2.22,0,0,0,74.2,0a2.28,2.28,0,0,0-2.5,1.43c0,.05-2.35,5.66-15.49,13.24a56.73,56.73,0,0,1-26.66,7.13,5,5,0,0,0-4.45-2.62H9.41a5,5,0,0,0-5,4.71H4.1A4.07,4.07,0,0,0,0,28v7.83a4.07,4.07,0,0,0,4.1,4h.28a5,5,0,0,0,5,4.72H11.7l2.43,18.56A3.52,3.52,0,0,0,17.62,66h5.24a3.55,3.55,0,0,0,2.7-1.23A3.38,3.38,0,0,0,26.35,62L24.1,44.53h1a5,5,0,0,0,4.45-2.62A56.81,56.81,0,0,1,56.21,49c13.13,7.58,15.47,13.19,15.48,13.22a2.26,2.26,0,0,0,2.13,1.49,1.73,1.73,0,0,0,.36,0,2.21,2.21,0,0,0,1.9-2.18V40.71h0c0-.19.06-.44.08-.75A4.28,4.28,0,0,0,80,35.88V27.57A4.29,4.29,0,0,0,76.09,23.48ZM4.37,37.41H4.1a1.65,1.65,0,0,1-1.66-1.63V28A1.65,1.65,0,0,1,4.1,26.32h.27Zm19.32,25.8a1.07,1.07,0,0,1-.83.38H17.62a1.07,1.07,0,0,1-1.07-.85L14.16,44.53h7.47l2.31,17.8A1.09,1.09,0,0,1,23.69,63.21Zm3.89-22.86a2.59,2.59,0,0,1-2.48,1.78H9.41a2.58,2.58,0,0,1-2.6-2.55v-1a1.13,1.13,0,0,0-.09-.45,1.18,1.18,0,0,0,.09-.46V24.16a2.58,2.58,0,0,1,2.6-2.55H25.1a2.58,2.58,0,0,1,2.48,1.78,1.2,1.2,0,0,0,.16.32V39.88s0,.08,0,.12A1.06,1.06,0,0,0,27.58,40.35Zm46.12,0a1.28,1.28,0,0,0-.07.39v20c-1-1.89-4.77-7.16-16.18-13.74a59.27,59.27,0,0,0-27.27-7.45V24.22a59.27,59.27,0,0,0,27.27-7.45C68.85,10.19,72.58,4.91,73.63,3v20C73.79,30.6,73.86,39.11,73.7,40.32Zm.29-.46h0Zm3.56-4a1.78,1.78,0,0,1-1.32,1.61c0-2.24,0-5.82-.1-11.56a1.8,1.8,0,0,1,1.42,1.64Zm25.23-4.13H93.51a1.2,1.2,0,1,0,0,2.4h9.27a1.2,1.2,0,1,0,0-2.4ZM88.42,47a1.23,1.23,0,0,0-1.72,0,1.18,1.18,0,0,0,0,1.7l6.56,6.44a1.19,1.19,0,0,0,.86.35,1.2,1.2,0,0,0,.86-.35,1.18,1.18,0,0,0,0-1.7Zm-.86-27.42a1.23,1.23,0,0,0,.86-.35L95,12.75a1.17,1.17,0,0,0,0-1.69,1.23,1.23,0,0,0-1.72,0L86.7,17.5a1.18,1.18,0,0,0,0,1.7A1.24,1.24,0,0,0,87.56,19.55Z"/></g></g></g></g></svg>