<svg xmlns="http://www.w3.org/2000/svg" viewBox="0 0 62.99 69.02"><defs><style>.cls-1{fill:#20aa97;fill-rule:evenodd;}</style></defs><title>Ресурс 3</title><g id="Слой_2" data-name="Слой 2"><g id="heading"><g id="Group_17_copy" data-name="Group 17 copy"><g id="Shape_56" data-name="Shape 56"><path class="cls-1" d="M34.38,66.17H2.86a.32.32,0,0,1-.2-.21v-63a.45.45,0,0,1,.2-.24h30V17.06a1.34,1.34,0,0,0,1.33,1.34H49V42.58a1.33,1.33,0,1,0,2.66,0V16.73a2.91,2.91,0,0,0-.85-2.06L37,.81A3.14,3.14,0,0,0,35,0H2.86a2.82,2.82,0,0,0-2,.86,2.93,2.93,0,0,0-.88,2V66a2.94,2.94,0,0,0,2.86,2.88H34.38a1.34,1.34,0,0,0,0-2.67Zm1.17-63L48.06,15.72H35.55Zm-7.9,20.22a1.34,1.34,0,0,0,0-2.68H19.09a1.34,1.34,0,0,0,0,2.68Zm8.1,5.54a1.33,1.33,0,0,0-1.33-1.34H12.65a1.34,1.34,0,0,0,0,2.68H34.42A1.33,1.33,0,0,0,35.75,28.9Zm-.21,7H16a1.34,1.34,0,0,0,0,2.68H35.54a1.34,1.34,0,0,0,0-2.68ZM10.29,46.2a1.34,1.34,0,0,0,1.33,1.34H25.69a1.34,1.34,0,0,0,0-2.68H11.62A1.34,1.34,0,0,0,10.29,46.2ZM62,47.87h0L58.57,44.4A3.49,3.49,0,0,0,56,43.31a3.21,3.21,0,0,0-2.32,1L51.13,46.9a1.34,1.34,0,0,0-.62.33,1.33,1.33,0,0,0-.33.63L39.9,58.17a2.94,2.94,0,0,0-.59,1l-1.84,6.56a2.88,2.88,0,0,0-.12.76A2.57,2.57,0,0,0,39.92,69a2.37,2.37,0,0,0,.72-.1L47.1,67a2.53,2.53,0,0,0,1.12-.6L62,52.62a3.62,3.62,0,0,0,1-2.13,1,1,0,0,0,0-.17A3.42,3.42,0,0,0,62,47.87ZM46.42,64.45h-.05l-6.28,1.83L41.84,60s0-.06,0-.06l9.73-9.75,4.5,4.52ZM60.09,50.72,58,52.85l-4.49-4.52,2.11-2.12A.6.6,0,0,1,56,46a.84.84,0,0,1,.65.3l3.44,3.46a.7.7,0,0,1,.2.49A.85.85,0,0,1,60.09,50.72Z"/></g></g></g></g></svg>