<svg xmlns="http://www.w3.org/2000/svg" viewBox="0 0 66.03 69.02"><defs><style>.cls-1{fill:#20aa97;fill-rule:evenodd;}</style></defs><title>Ресурс 10</title><g id="Слой_2" data-name="Слой 2"><g id="heading"><g id="Group_17" data-name="Group 17"><g id="Shape_51" data-name="Shape 51"><path class="cls-1" d="M42.5,49.33a12.08,12.08,0,0,0,2.32,3.1A6.12,6.12,0,0,0,49,54h.2a6.15,6.15,0,0,0,4.12-1.59,8.49,8.49,0,0,0,2.33-3.12,15.26,15.26,0,0,0,1.58-6.58v-1a6.8,6.8,0,0,0-4.65-6A9.68,9.68,0,0,0,49,35.06a9.29,9.29,0,0,0-3.54.66,6.78,6.78,0,0,0-4.68,6.14v.94a17.32,17.32,0,0,0,1.67,6.51Zm3.9-11.28a6.67,6.67,0,0,1,2.64-.5,7,7,0,0,1,2.67.51,4.37,4.37,0,0,1,3.07,3.8v.87a13.09,13.09,0,0,1-1.36,5.58,6.3,6.3,0,0,1-1.71,2.26,3.81,3.81,0,0,1-1.15.71,1.24,1.24,0,0,0-1.2-.93h0a1.25,1.25,0,0,0-1.23,1.08,3.54,3.54,0,0,1-1.59-.81,9.19,9.19,0,0,1-1.8-2.39,14.91,14.91,0,0,1-1.43-5.5V42A4.29,4.29,0,0,1,46.4,38.05ZM63,56.84a6,6,0,0,0-2.07-1.05L56.19,54a4.06,4.06,0,0,0-4.13.37,1.14,1.14,0,0,0-.11.11l-.2.19a4.48,4.48,0,0,0-.71.92,1,1,0,0,0-.19.21l-1.74,2.43-.75-1.06c-.47-.67-.94-1.34-1.43-2a1.87,1.87,0,0,0-.3-.42,3.38,3.38,0,0,0-1.75-1.11l-.38-.1a1.47,1.47,0,0,0-.47,0l-1.45.19-.28.07-4.75,1.82a6.57,6.57,0,0,0-2.25,1.18,4.9,4.9,0,0,0-2,3.92v3.8a1.94,1.94,0,0,0,0,.24c.1.51.21.92.31,1.33a1,1,0,0,0,0,.16,4.22,4.22,0,0,0,4,2.73H60.68a4.27,4.27,0,0,0,3.92-2.64A4.14,4.14,0,0,0,65,64.46V61A4.41,4.41,0,0,0,63,56.84Zm-.44,4v3.61a1.81,1.81,0,0,1-.2.9,1.84,1.84,0,0,1-1.66,1.16H37.6A1.72,1.72,0,0,1,36,65.43c-.07-.31-.15-.63-.23-1V60.71a2.43,2.43,0,0,1,1.09-1.9A4.42,4.42,0,0,1,38.34,58l4.71-1.8,1.08-.15.21.06c.09,0,.19.09.44.34a1.69,1.69,0,0,0,.21.31c.46.6.9,1.23,1.34,1.86s.94,1.34,1.45,2l.39.49a1.31,1.31,0,0,0,1,.47,1.28,1.28,0,0,0,1-.53l2.57-3.59a1.56,1.56,0,0,0,.28-.33,1,1,0,0,0,.16-.24,2,2,0,0,1,.35-.45l.13-.14c.19-.13.65-.37,1.67,0l4.83,1.79a3.58,3.58,0,0,1,1.31.65l0,0a2.18,2.18,0,0,1,1.08,1.67A1.24,1.24,0,0,0,62.54,60.85ZM45,7.77l3-1.64a1.25,1.25,0,0,0-1.2-2.19L41,7.12a1.28,1.28,0,0,0-.6.75,1.26,1.26,0,0,0,.11,1l3.17,5.77a1.22,1.22,0,0,0,1.08.65,1.17,1.17,0,0,0,.6-.16,1.25,1.25,0,0,0,.49-1.69l-1.8-3.3A26.4,26.4,0,0,1,63.55,33.9a1.25,1.25,0,0,0,1.24,1.16h.08A1.26,1.26,0,0,0,66,33.73,28.9,28.9,0,0,0,45,7.77ZM22.79,58.52A1.23,1.23,0,0,0,21.11,58a1.25,1.25,0,0,0-.49,1.69L22,62.2A26.38,26.38,0,0,1,2.48,38.4a1.25,1.25,0,0,0-1.32-1.16A1.25,1.25,0,0,0,0,38.57,28.87,28.87,0,0,0,21,64.52l-2.15,1.2a1.25,1.25,0,0,0,.6,2.34,1.2,1.2,0,0,0,.6-.16L25,65.17a1.25,1.25,0,0,0,.49-1.69ZM1.68,14.68h3V27.1H4a1.25,1.25,0,0,0,0,2.5H33.74a1.25,1.25,0,0,0,0-2.5H33V14.68h3.4a1.25,1.25,0,0,0,.71-2.27L19.74.23a1.2,1.2,0,0,0-1.42,0L1,12.41a1.26,1.26,0,0,0-.47,1.4A1.23,1.23,0,0,0,1.68,14.68Zm9.6,12.42H7.16V14.68h4.12Zm6.61,0H13.77V14.68h4.12Zm6.3,0H20.37V14.68h3.82Zm6.3,0H26.67V14.68h3.82ZM19,2.77l13.4,9.42H5.63Zm17.35,28H1.89a1.25,1.25,0,0,0,0,2.5H36.38a1.25,1.25,0,0,0,0-2.5Z"/></g></g></g></g></svg>