<svg xmlns="http://www.w3.org/2000/svg" viewBox="0 0 59.99 69.01"><defs><style>.cls-1{fill:#20aa97;fill-rule:evenodd;}</style></defs><title>Ресурс 7</title><g id="Слой_2" data-name="Слой 2"><g id="heading"><g id="Group_17" data-name="Group 17"><g id="Shape_48" data-name="Shape 48"><path class="cls-1" d="M16.72,19.76H25a1.28,1.28,0,1,0,0-2.55H16.72a1.28,1.28,0,1,0,0,2.55Zm-6.25,6.55h21.1a1.28,1.28,0,1,0,0-2.55H10.47a1.28,1.28,0,1,0,0,2.55Zm3.25,5.37a1.28,1.28,0,1,0,0,2.55H32.66a1.28,1.28,0,1,0,0-2.55Zm9.39,8.57H9.48a1.28,1.28,0,1,0,0,2.55H23.11a1.28,1.28,0,1,0,0-2.55Zm34,7.2a3.57,3.57,0,0,0-.49-4.59l-2.71-2.68A3.73,3.73,0,0,0,50,39.31V15.94a2.76,2.76,0,0,0-.81-2L35.84.77A3.13,3.13,0,0,0,33.9,0H2.77A2.74,2.74,0,0,0,.85.82,2.77,2.77,0,0,0,0,2.74V62.87a2.82,2.82,0,0,0,2.77,2.74H33.31a1.42,1.42,0,0,0,.2,0l.06.07a3.85,3.85,0,0,0,4.6.48A3.68,3.68,0,0,0,41.81,69h3.82a3.62,3.62,0,0,0,3.6-2.9,3.83,3.83,0,0,0,4.63-.47L56.58,63a3.55,3.55,0,0,0,.5-4.55A3.65,3.65,0,0,0,60,54.8V51A3.62,3.62,0,0,0,57.06,47.45ZM34.49,3.05l11.8,11.66H34.49Zm-31.72,60a.3.3,0,0,1-.19-.19V2.78a.51.51,0,0,1,.2-.23H31.92V16a1.27,1.27,0,0,0,1.28,1.27H47.44v20a3.82,3.82,0,0,0-1.81-.45H41.81a3.61,3.61,0,0,0-3.61,2.89,3.8,3.8,0,0,0-4.63.47l-2.72,2.69a3.55,3.55,0,0,0-.49,4.55A3.67,3.67,0,0,0,27.45,51V54.8a3.61,3.61,0,0,0,2.92,3.57A3.69,3.69,0,0,0,30.85,63l.12.11ZM57.41,54.8a1.11,1.11,0,0,1-1,1.13l-1.76.3a1.28,1.28,0,0,0-1,.77,1.27,1.27,0,0,0,.13,1.22l1.13,1.57a1,1,0,0,1-.15,1.35L52,63.83a1.1,1.1,0,0,1-1.55,0l-1.45-1a1.33,1.33,0,0,0-1.24-.14,1.32,1.32,0,0,0-.77,1l-.32,1.85a1.05,1.05,0,0,1-1.08.91H41.81a1.11,1.11,0,0,1-1.14-1l-.31-1.74a1.29,1.29,0,0,0-.78-1,1.37,1.37,0,0,0-.49-.09,1.32,1.32,0,0,0-.74.23l-1.49,1-.11.08a1.25,1.25,0,0,1-1.36-.16L32.7,61.17a1.16,1.16,0,0,1-.05-1.56l1-1.44A1.26,1.26,0,0,0,33.79,57a1.28,1.28,0,0,0-1-.76l-1.87-.32A1,1,0,0,1,30,54.8V51a1.11,1.11,0,0,1,1-1.13l1.75-.3a1.32,1.32,0,0,0,1-.77,1.24,1.24,0,0,0-.14-1.22L32.53,46a1,1,0,0,1,.15-1.35L35.37,42A1.2,1.2,0,0,1,37,42l1.45,1a1.29,1.29,0,0,0,1.23.13,1.26,1.26,0,0,0,.77-1l.32-1.86a1.05,1.05,0,0,1,1.09-.9h3.82a1.11,1.11,0,0,1,1.14,1l.3,1.74a1.29,1.29,0,0,0,2,.82l1.58-1.11A1,1,0,0,1,52,42l2.72,2.69,0,0a1.1,1.1,0,0,1,0,1.52l-1,1.43a1.27,1.27,0,0,0-.13,1.22,1.28,1.28,0,0,0,1,.76l1.87.32A1,1,0,0,1,57.41,51ZM44.27,45.57a7.34,7.34,0,1,0,7.42,7.34A7.39,7.39,0,0,0,44.27,45.57Zm0,12.13a4.79,4.79,0,1,1,4.84-4.79A4.82,4.82,0,0,1,44.27,57.7Z"/></g></g></g></g></svg>