<svg xmlns="http://www.w3.org/2000/svg" viewBox="0 0 94 68.99"><defs><style>.cls-1{fill:#20aa97;fill-rule:evenodd;}</style></defs><title>Ресурс 11</title><g id="Слой_2" data-name="Слой 2"><g id="heading"><g id="Group_17" data-name="Group 17"><g id="Shape_52" data-name="Shape 52"><path class="cls-1" d="M76,21.36H21.45a1.26,1.26,0,0,0-1.27,1.25V51.33a1.26,1.26,0,0,0,1.27,1.25H76a1.26,1.26,0,0,0,1.28-1.25V22.61A1.26,1.26,0,0,0,76,21.36ZM22.73,23.87h4.44a5.46,5.46,0,0,1-4.44,4.21Zm0,26.2V46a5.44,5.44,0,0,1,4.4,4Zm52,0H70A5.46,5.46,0,0,1,74.7,46Zm0-6.61a8,8,0,0,0-7.34,6.61H29.73a8,8,0,0,0-7-6.58V30.61a8,8,0,0,0,7-6.74H67.33a8,8,0,0,0,7.37,6.77Zm0-15.33a5.45,5.45,0,0,1-4.78-4.26H74.7ZM49.43,25.34A11.67,11.67,0,1,0,61.34,37,11.8,11.8,0,0,0,49.43,25.34Zm0,20.83A9.16,9.16,0,1,1,58.78,37,9.26,9.26,0,0,1,49.43,46.17ZM48.27,35.36c0-.33.27-.57.88-.57a4,4,0,0,1,1.7.39,1,1,0,0,0,1.21-.24.91.91,0,0,0-.28-1.37,5.15,5.15,0,0,0-1.63-.49V32H48.8v1.12c-1.73.2-2.67,1.29-2.67,2.5,0,3.07,4.61,2.19,4.61,3.28,0,.38-.44.66-1.16.66A3.79,3.79,0,0,1,47.66,39a.93.93,0,0,0-1.24.27h0a.93.93,0,0,0,.3,1.35,5.25,5.25,0,0,0,2.1.62v1.08h1.35V41.23c1.76-.19,2.72-1.2,2.72-2.63C52.87,35.64,48.27,36.38,48.27,35.36ZM25.35,19.88H71.4a1.25,1.25,0,1,0,0-2.5H25.35a1.25,1.25,0,1,0,0,2.5Zm5.92-3.65H65.69a1.26,1.26,0,1,0,0-2.51H31.27a1.26,1.26,0,1,0,0,2.51ZM72.9,3.93l2.92-1.58a1.24,1.24,0,0,0,.5-1.7A1.29,1.29,0,0,0,74.58.16L68.8,3.28a1.24,1.24,0,0,0-.61.74,1.2,1.2,0,0,0,.11,1l3.18,5.67a1.29,1.29,0,0,0,1.12.65,1.27,1.27,0,0,0,.62-.16,1.24,1.24,0,0,0,.5-1.7L71.94,6.27a26,26,0,0,1,19.51,23.3,1.27,1.27,0,0,0,1.27,1.17h.09A1.25,1.25,0,0,0,94,29.4,28.53,28.53,0,0,0,72.9,3.93ZM22.53,58.34a1.29,1.29,0,0,0-1.74-.49,1.23,1.23,0,0,0-.5,1.7l1.78,3.17A26,26,0,0,1,2.56,39.42a1.27,1.27,0,0,0-1.37-1.17A1.28,1.28,0,0,0,0,39.59,28.52,28.52,0,0,0,21.11,65.06l-2.92,1.57a1.25,1.25,0,0,0-.5,1.71,1.29,1.29,0,0,0,1.12.65,1.21,1.21,0,0,0,.61-.16l5.79-3.12a1.3,1.3,0,0,0,.61-.75,1.26,1.26,0,0,0-.11-.95Z"/></g></g></g></g></svg>