<svg xmlns="http://www.w3.org/2000/svg" viewBox="0 0 70 69"><defs><style>.cls-1{fill:#20aa97;fill-rule:evenodd;}</style></defs><title>Ресурс 8</title><g id="Слой_2" data-name="Слой 2"><g id="heading"><g id="Group_17" data-name="Group 17"><g id="Shape_50" data-name="Shape 50"><path class="cls-1" d="M68.73,66.48H56.51v-4a1.28,1.28,0,0,0-2.55,0v4H38.52v-4a1.28,1.28,0,0,0-2.55,0v4H20.53v-4a1.27,1.27,0,0,0-2.54,0v4H3.46L9,52.56l4.13,4.2a1.25,1.25,0,0,0,1.09.37,1.27,1.27,0,0,0,.94-.66l5.94-11.15,5.45,4.45a1.22,1.22,0,0,0,.93.28,1.24,1.24,0,0,0,.86-.45l4.47-5.39A23.83,23.83,0,0,0,69.53,24.47a23.79,23.79,0,0,0-47.58,0,23.4,23.4,0,0,0,8.81,18.26L27.2,47,21.52,42.4a1.3,1.3,0,0,0-1.06-.26,1.21,1.21,0,0,0-.87.65l-5.85,11L9.46,49.41a1.27,1.27,0,0,0-2.09.42L2.54,61.92V1.26A1.26,1.26,0,0,0,1.27,0,1.26,1.26,0,0,0,0,1.26V67.74A1.27,1.27,0,0,0,1.27,69H68.73a1.26,1.26,0,1,0,0-2.52Zm-44.24-42a21.25,21.25,0,0,1,42.5,0,21.25,21.25,0,0,1-42.5,0Zm31-12a1.29,1.29,0,0,0-1.79.2L36.25,34.31a1.24,1.24,0,0,0,.2,1.76,1.28,1.28,0,0,0,1.79-.19l17.48-21.6A1.26,1.26,0,0,0,55.53,12.51ZM45,18.05a5.77,5.77,0,1,0-5.77,5.7A5.74,5.74,0,0,0,45,18.05Zm-9,0a3.23,3.23,0,1,1,3.22,3.19A3.21,3.21,0,0,1,36,18.05ZM46.47,30.89a5.77,5.77,0,1,0,5.77-5.7A5.75,5.75,0,0,0,46.47,30.89Zm9,0a3.23,3.23,0,1,1-3.22-3.19A3.21,3.21,0,0,1,55.46,30.89Z"/></g></g></g></g></svg>