<svg xmlns="http://www.w3.org/2000/svg" viewBox="0 0 71.02 69"><defs><style>.cls-1{fill:#20aa97;fill-rule:evenodd;}</style></defs><title>Ресурс 2</title><g id="Слой_2" data-name="Слой 2"><g id="heading"><g id="Group_17_copy" data-name="Group 17 copy"><g id="Shape_46" data-name="Shape 46"><path class="cls-1" d="M66.62,26.75l-.15-.08-.58-.27a1.23,1.23,0,0,0,.13-.54C66,11.6,52.42,0,35.71,0S5.4,11.6,5.4,25.86a1.17,1.17,0,0,0,.07.38l-.93.43-.15.08a9.57,9.57,0,0,0-4.39,8v7.35a9.61,9.61,0,0,0,9.61,9.59h4a4.11,4.11,0,0,0,4.11-4.1V29.3a4.11,4.11,0,0,0-4.11-4.1h-4A8.56,8.56,0,0,0,8,25.37C8.28,12.74,20.6,2.54,35.71,2.54S63.19,12.78,63.46,25.45a9.26,9.26,0,0,0-2.05-.25h-4a4.11,4.11,0,0,0-4.1,4.1V47.63a4.11,4.11,0,0,0,4.1,4.1h4L51,61.55a3.65,3.65,0,0,1-2.52,1.08H44.83A5.12,5.12,0,0,0,39.9,58.8H33.78a5.1,5.1,0,1,0,0,10.2H39.9a5.1,5.1,0,0,0,4.93-3.83h3.63a6.24,6.24,0,0,0,4.27-1.77L66.11,50.74a1.16,1.16,0,0,0,.3-.43A9.59,9.59,0,0,0,71,42.14V34.79A9.58,9.58,0,0,0,66.62,26.75Zm-53.47,1h.5a1.56,1.56,0,0,1,1.56,1.56V47.63a1.55,1.55,0,0,1-1.56,1.55h-.5Zm-3.54,0h1V49.18h-1a7.06,7.06,0,0,1-7.06-7V34.79a7,7,0,0,1,3.16-5.86l1.74-.81A7,7,0,0,1,9.61,27.74ZM39.9,66.46H33.78a2.56,2.56,0,1,1,0-5.11H39.9a2.56,2.56,0,1,1,0,5.11Zm18-17.28h-.51a1.55,1.55,0,0,1-1.55-1.55V29.3a1.56,1.56,0,0,1,1.55-1.56h.51Zm10.6-7a7.06,7.06,0,0,1-7.06,7h-1V27.74h1a7.08,7.08,0,0,1,2.16.38l1.74.81a7,7,0,0,1,3.16,5.86ZM38,51.35V46.24a1.28,1.28,0,0,0-2.55,0v5.11a1.28,1.28,0,0,0,2.55,0Zm8,4.18,3.62-3.62a1.27,1.27,0,0,0,0-1.8,1.29,1.29,0,0,0-1.8,0l-3.62,3.62a1.27,1.27,0,0,0,0,1.8,1.24,1.24,0,0,0,.9.37A1.27,1.27,0,0,0,46,55.53Zm-16.57-1.8-3.62-3.62a1.29,1.29,0,0,0-1.8,0,1.27,1.27,0,0,0,0,1.8l3.62,3.62a1.27,1.27,0,0,0,1.8-1.8Z"/></g></g></g></g></svg>